<?xml version="1.0" encoding="UTF-8"?><svg id="Layer_1" xmlns="http://www.w3.org/2000/svg" viewBox="0 0 633.87 244.61"><defs><style>.cls-1{font-size:24px;}.cls-1,.cls-2{fill:#fff;font-family:MyriadPro-Regular, 'Myriad Pro';}.cls-3{fill:#231f20;}.cls-4,.cls-5{font-size:36px;}.cls-4,.cls-6{font-family:Athelas-Regular, Athelas;}.cls-7{fill:red;}.cls-7,.cls-8,.cls-9{stroke-width:4px;}.cls-7,.cls-8,.cls-9,.cls-10{stroke:#231f20;stroke-miterlimit:10;}.cls-8,.cls-11{fill:blue;}.cls-9{fill:#a6a8ab;}.cls-12{fill:#ec1e24;}.cls-12,.cls-13,.cls-11,.cls-14{font-family:HelveticaNeue-Medium, 'Helvetica Neue';font-size:60px;font-weight:500;}.cls-13{fill:#098040;}.cls-5{font-family:Athelas-Italic, Athelas;font-style:italic;}.cls-10{fill:none;}.cls-14{fill:#f58b1f;}.cls-6{font-size:52px;}.cls-2{font-size:48px;}</style></defs><g><g><circle class="cls-7" cx="67.93" cy="141.8" r="20.12"/><path class="cls-3" d="M4.65,86.23c3.78-6.88,11.41-10.92,18.8-12.74,8.73-2.15,17.66-.84,26.13,1.79s16.68,6.45,25.24,9.06,18,3.73,27.22,2.44,19.11-5.04,26.31-11.61c2.38-2.17-1.16-5.7-3.54-3.54-6.17,5.63-14.36,8.72-22.5,10.08-8.91,1.49-17.79,.38-26.36-2.25-8.61-2.65-16.81-6.48-25.43-9.12s-18.25-3.91-27.42-1.9S4.87,75.44,.33,83.7c-1.55,2.82,2.77,5.35,4.32,2.52h0Z"/><path class="cls-3" d="M63.16,119.52c-2.6-1.81-3.35-6.35-3.26-9.42,.11-3.97,1.54-7.73,2.69-11.48,2.3-7.55,2.95-16.72-1.99-23.46-.8-1.09-2.17-1.63-3.42-.9-1.07,.63-1.7,2.33-.9,3.42,2.26,3.08,3.1,7.02,3.1,10.78,0,4.15-1.39,8.07-2.6,11.99s-2.25,8.35-1.72,12.65,2.09,8.3,5.58,10.73c1.11,.77,2.78,.2,3.42-.9,.73-1.24,.21-2.65-.9-3.42h0Z"/><path class="cls-3" d="M78.26,201.47c-2.45-.96-4.46-3.16-5.18-5.68-.76-2.67,.13-5.38,1.32-7.78,1.46-2.95,3.24-5.71,4.46-8.78s1.51-6.37,.78-9.59c-.82-3.61-2.96-6.97-5.88-9.23-1.07-.83-2.5-1.04-3.54,0-.86,.86-1.07,2.7,0,3.54,2.46,1.9,4.18,4.48,4.71,7.57s-.48,5.75-1.81,8.34c-2.93,5.72-7.17,11.77-4.45,18.45,1.54,3.79,4.47,6.52,8.26,8.01,1.26,.49,2.74-.54,3.08-1.75,.39-1.42-.48-2.58-1.75-3.08h0Z"/><text class="cls-2" transform="translate(60.56 154.78)"><tspan x="0" y="0">-</tspan></text><circle class="cls-8" cx="76.67" cy="222.49" r="20.12"/><text class="cls-1" transform="translate(69.52 228.87)"><tspan x="0" y="0">+</tspan></text></g><text class="cls-13" transform="translate(44.49 51.42)"><tspan x="0" y="0">A</tspan></text></g><g><text class="cls-12" transform="translate(210.49 51.42)"><tspan x="0" y="0">B</tspan></text><g><circle class="cls-9" cx="236.67" cy="141.8" r="20.12"/><path class="cls-3" d="M172.89,86.23c3.78-6.88,11.41-10.92,18.8-12.74,8.73-2.15,17.66-.84,26.13,1.79s16.68,6.45,25.24,9.06,18,3.73,27.22,2.44c9.57-1.34,19.11-5.04,26.31-11.61,2.38-2.17-1.16-5.7-3.54-3.54-6.17,5.63-14.36,8.72-22.5,10.08-8.91,1.49-17.79,.38-26.36-2.25s-16.81-6.48-25.43-9.12-18.25-3.91-27.42-1.9-18.22,7-22.76,15.26c-1.55,2.82,2.77,5.35,4.32,2.52h0Z"/><path class="cls-3" d="M231.4,119.52c-2.6-1.81-3.35-6.35-3.26-9.42,.11-3.97,1.54-7.73,2.69-11.48,2.3-7.55,2.95-16.72-1.99-23.46-.8-1.09-2.17-1.63-3.42-.9-1.07,.63-1.7,2.33-.9,3.42,2.26,3.08,3.1,7.02,3.1,10.78,0,4.15-1.39,8.07-2.6,11.99s-2.25,8.35-1.72,12.65,2.09,8.3,5.58,10.73c1.11,.77,2.78,.2,3.42-.9,.73-1.24,.21-2.65-.9-3.42h0Z"/><path class="cls-3" d="M246.51,201.47c-2.45-.96-4.46-3.16-5.18-5.68-.76-2.67,.13-5.38,1.32-7.78,1.46-2.95,3.24-5.71,4.46-8.78s1.51-6.37,.78-9.59c-.82-3.61-2.96-6.97-5.88-9.23-1.07-.83-2.5-1.04-3.54,0-.86,.86-1.07,2.7,0,3.54,2.46,1.9,4.18,4.48,4.71,7.57s-.48,5.75-1.81,8.34c-2.93,5.72-7.17,11.77-4.45,18.45,1.54,3.79,4.47,6.52,8.26,8.01,1.26,.49,2.74-.54,3.08-1.75,.39-1.42-.48-2.58-1.75-3.08h0Z"/><circle class="cls-8" cx="244.92" cy="222.49" r="20.12"/><text class="cls-1" transform="translate(237.77 228.87)"><tspan x="0" y="0">+</tspan></text></g></g><g><text class="cls-11" transform="translate(379.37 51.42)"><tspan x="0" y="0">C</tspan></text><g><circle class="cls-7" cx="404.42" cy="141.8" r="20.12"/><path class="cls-3" d="M341.14,86.23c3.78-6.88,11.41-10.92,18.8-12.74,8.73-2.15,17.66-.84,26.13,1.79s16.68,6.45,25.24,9.06,18,3.73,27.22,2.44,19.11-5.04,26.31-11.61c2.38-2.17-1.16-5.7-3.54-3.54-6.17,5.63-14.36,8.72-22.5,10.08-8.91,1.49-17.79,.38-26.36-2.25-8.61-2.65-16.81-6.48-25.43-9.12s-18.25-3.91-27.42-1.9-18.22,7-22.76,15.26c-1.55,2.82,2.77,5.35,4.32,2.52h0Z"/><path class="cls-3" d="M399.65,119.52c-2.6-1.81-3.35-6.35-3.26-9.42,.11-3.97,1.54-7.73,2.69-11.48,2.3-7.55,2.95-16.72-1.99-23.46-.8-1.09-2.17-1.63-3.42-.9-1.07,.63-1.7,2.33-.9,3.42,2.26,3.08,3.1,7.02,3.1,10.78,0,4.15-1.39,8.07-2.6,11.99s-2.25,8.35-1.72,12.65,2.09,8.3,5.58,10.73c1.11,.77,2.78,.2,3.42-.9,.73-1.24,.21-2.65-.9-3.42h0Z"/><path class="cls-3" d="M414.76,201.47c-2.45-.96-4.46-3.16-5.18-5.68-.76-2.67,.13-5.38,1.32-7.78,1.46-2.95,3.24-5.71,4.46-8.78s1.51-6.37,.78-9.59c-.82-3.61-2.96-6.97-5.88-9.23-1.07-.83-2.5-1.04-3.54,0-.86,.86-1.07,2.7,0,3.54,2.46,1.9,4.18,4.48,4.71,7.57s-.48,5.75-1.81,8.34c-2.93,5.72-7.17,11.77-4.45,18.45,1.54,3.79,4.47,6.52,8.26,8.01,1.26,.49,2.74-.54,3.08-1.75,.39-1.42-.48-2.58-1.75-3.08h0Z"/><text class="cls-2" transform="translate(397.05 154.78)"><tspan x="0" y="0">-</tspan></text><circle class="cls-9" cx="413.17" cy="222.49" r="20.12"/></g></g><g><text class="cls-14" transform="translate(546.38 51.42)"><tspan x="0" y="0">D</tspan></text><g><circle class="cls-9" cx="573.17" cy="141.8" r="20.12"/><path class="cls-3" d="M509.39,86.23c3.78-6.88,11.41-10.92,18.8-12.74,8.73-2.15,17.66-.84,26.13,1.79,8.54,2.65,16.68,6.45,25.24,9.06,8.89,2.71,18,3.73,27.22,2.44s19.11-5.04,26.31-11.61c2.38-2.17-1.16-5.7-3.54-3.54-6.17,5.63-14.36,8.72-22.5,10.08-8.91,1.49-17.79,.38-26.36-2.25s-16.81-6.48-25.43-9.12-18.25-3.91-27.42-1.9c-8.95,1.97-18.22,7-22.76,15.26-1.55,2.82,2.77,5.35,4.32,2.52h0Z"/><path class="cls-3" d="M567.9,119.52c-2.6-1.81-3.35-6.35-3.26-9.42,.11-3.97,1.54-7.73,2.69-11.48,2.3-7.55,2.95-16.72-1.99-23.46-.8-1.09-2.17-1.63-3.42-.9-1.07,.63-1.7,2.33-.9,3.42,2.26,3.08,3.1,7.02,3.1,10.78,0,4.15-1.39,8.07-2.6,11.99s-2.25,8.35-1.72,12.65,2.09,8.3,5.58,10.73c1.11,.77,2.78,.2,3.42-.9,.73-1.24,.21-2.65-.9-3.42h0Z"/><path class="cls-3" d="M583,201.47c-2.45-.96-4.46-3.16-5.18-5.68-.76-2.67,.13-5.38,1.32-7.78,1.46-2.95,3.24-5.71,4.46-8.78s1.51-6.37,.78-9.59c-.82-3.61-2.96-6.97-5.88-9.23-1.07-.83-2.5-1.04-3.54,0-.86,.86-1.07,2.7,0,3.54,2.46,1.9,4.18,4.48,4.71,7.57s-.48,5.75-1.81,8.34c-2.93,5.72-7.17,11.77-4.45,18.45,1.54,3.79,4.47,6.52,8.26,8.01,1.26,.49,2.74-.54,3.08-1.75,.39-1.42-.48-2.58-1.75-3.08h0Z"/><circle class="cls-9" cx="581.41" cy="222.49" r="20.12"/></g></g><g><line class="cls-10" x1="207.51" y1="141.7" x2="97.18" y2="142.32"/><polygon class="cls-3" points="204.68 138.01 206.28 141.71 204.72 145.42 213.48 141.67 204.68 138.01"/><polygon class="cls-3" points="99.97 138.6 98.42 142.31 100.01 146.01 91.21 142.35 99.97 138.6"/></g><text class="cls-5" transform="translate(138.9 134.05)"><tspan x="0" y="0">α</tspan></text><text class="cls-6" transform="translate(157.08 142.36) scale(.58)"><tspan x="0" y="0">-</tspan></text><g><line class="cls-10" x1="384.48" y1="222.49" x2="273.9" y2="222.49"/><polygon class="cls-3" points="381.67 218.79 383.24 222.49 381.67 226.19 390.45 222.49 381.67 218.79"/><polygon class="cls-3" points="276.71 218.79 275.14 222.49 276.71 226.19 267.94 222.49 276.71 218.79"/></g><text class="cls-5" transform="translate(315.05 213.2)"><tspan x="0" y="0">α</tspan></text><text class="cls-4" transform="translate(333.23 218.18) scale(.58)"><tspan x="0" y="0">+</tspan></text></svg>