<?xml version="1.0" encoding="UTF-8"?><svg id="Layer_1" xmlns="http://www.w3.org/2000/svg" viewBox="0 0 470.91 274.1"><defs><style>.cls-1{font-size:24px;}.cls-1,.cls-2,.cls-3{fill:#fff;}.cls-1,.cls-3{font-family:MyriadPro-Regular, 'Myriad Pro';}.cls-4,.cls-5{fill:#f58b1f;}.cls-6{fill:red;}.cls-6,.cls-7,.cls-8,.cls-5{stroke:#231f20;stroke-width:4px;}.cls-6,.cls-7,.cls-8,.cls-5,.cls-9{stroke-miterlimit:10;}.cls-7{fill:blue;}.cls-8{fill:#098040;}.cls-9{fill:none;stroke:#fff;stroke-width:2px;}.cls-3{font-size:48px;}</style></defs><g><circle class="cls-6" cx="173.12" cy="111.15" r="20.12"/><text class="cls-3" transform="translate(165.75 124.13)"><tspan x="0" y="0">-</tspan></text></g><g><circle class="cls-7" cx="54.98" cy="233.35" r="20.12"/><text class="cls-1" transform="translate(47.83 239.73)"><tspan x="0" y="0">+</tspan></text></g><circle class="cls-5" cx="26.64" cy="199.68" r="20.12"/><g><circle class="cls-8" cx="52.37" cy="124.99" r="20.12"/><g><line class="cls-4" x1="56.98" y1="112.37" x2="47.77" y2="137.6"/><g><line class="cls-9" x1="56.98" y1="112.37" x2="50.5" y2="130.12"/><path class="cls-2" d="M47.77,137.6c-.02-4-.66-9.18-2.03-12.75l5.12,4.29,6.67,.02c-3.35,1.85-7.17,5.4-9.76,8.45Z"/></g></g></g><g><circle class="cls-7" cx="135.41" cy="35.86" r="20.12"/><text class="cls-1" transform="translate(128.26 42.25)"><tspan x="0" y="0">+</tspan></text></g><g><circle class="cls-7" cx="95.16" cy="114.58" r="20.12"/><text class="cls-1" transform="translate(88.01 120.97)"><tspan x="0" y="0">+</tspan></text></g><g><circle class="cls-7" cx="166.1" cy="67.51" r="20.12"/><text class="cls-1" transform="translate(158.95 73.89)"><tspan x="0" y="0">+</tspan></text></g><g><circle class="cls-7" cx="22.12" cy="155.83" r="20.12"/><text class="cls-1" transform="translate(14.97 162.22)"><tspan x="0" y="0">+</tspan></text></g><g><circle class="cls-8" cx="135.02" cy="132.89" r="20.12"/><g><line class="cls-4" x1="145.19" y1="141.66" x2="124.85" y2="124.12"/><g><line class="cls-9" x1="145.19" y1="141.66" x2="130.88" y2="129.32"/><path class="cls-2" d="M124.85,124.12c3.75,1.39,8.82,2.63,12.64,2.61l-5.82,3.27-2.38,6.24c-.54-3.79-2.52-8.62-4.45-12.12Z"/></g></g></g><circle class="cls-5" cx="93.59" cy="22.12" r="20.12"/><g><circle class="cls-6" cx="304.93" cy="218.35" r="20.12"/><text class="cls-3" transform="translate(297.56 231.33)"><tspan x="0" y="0">-</tspan></text></g><g><circle class="cls-7" cx="98.29" cy="241.35" r="20.12"/><text class="cls-1" transform="translate(91.14 247.73)"><tspan x="0" y="0">+</tspan></text></g><circle class="cls-5" cx="181.22" cy="245.47" r="20.12"/><g><circle class="cls-8" cx="224.27" cy="251.97" r="20.12"/><g><line class="cls-4" x1="221.32" y1="265.08" x2="227.22" y2="238.87"/><g><line class="cls-9" x1="221.32" y1="265.08" x2="225.47" y2="246.64"/><path class="cls-2" d="M227.22,238.87c.53,3.96,1.83,9.02,3.65,12.38l-5.63-3.59-6.62,.84c3.08-2.26,6.42-6.28,8.6-9.63Z"/></g></g></g><g><circle class="cls-7" cx="372.96" cy="165.55" r="20.12"/><text class="cls-1" transform="translate(365.81 171.94)"><tspan x="0" y="0">+</tspan></text></g><g><circle class="cls-7" cx="264.13" cy="233.85" r="20.12"/><text class="cls-1" transform="translate(256.98 240.23)"><tspan x="0" y="0">+</tspan></text></g><g><circle class="cls-7" cx="448.79" cy="141.6" r="20.12"/><text class="cls-1" transform="translate(441.64 147.99)"><tspan x="0" y="0">+</tspan></text></g><g><circle class="cls-7" cx="140.61" cy="229.35" r="20.12"/><text class="cls-1" transform="translate(133.46 235.73)"><tspan x="0" y="0">+</tspan></text></g><g><circle class="cls-8" cx="344.14" cy="198.6" r="20.12"/><g><line class="cls-4" x1="351.63" y1="209.76" x2="336.66" y2="187.45"/><g><line class="cls-9" x1="351.63" y1="209.76" x2="341.1" y2="194.07"/><path class="cls-2" d="M336.66,187.45c3.24,2.34,7.81,4.88,11.5,5.87l-6.48,1.61-3.95,5.38c.48-3.79-.14-8.98-1.08-12.87Z"/></g></g></g><circle class="cls-5" cx="405.24" cy="136.02" r="20.12"/></svg>