<?xml version="1.0" encoding="UTF-8"?><svg id="Layer_1" xmlns="http://www.w3.org/2000/svg" xmlns:xlink="http://www.w3.org/1999/xlink" viewBox="0 0 534.55 232.12"><defs><style>.cls-1,.cls-2{font-family:HelveticaNeue-Bold, 'Helvetica Neue';}.cls-3,.cls-4{fill:#fff;}.cls-5{fill:red;}.cls-6{fill:#662d91;}.cls-7{fill:#652f8e;}.cls-8{fill:#652d90;}.cls-9{stroke:#662d91;}.cls-9,.cls-10{stroke-width:.65px;}.cls-9,.cls-10,.cls-4,.cls-11,.cls-12{stroke-miterlimit:10;}.cls-9,.cls-10,.cls-12{fill:none;}.cls-10,.cls-12{stroke:red;}.cls-2,.cls-13{font-size:18px;}.cls-4{stroke:#231f20;stroke-width:.5px;}.cls-11{fill:blue;stroke:#3953a2;}.cls-14{font-family:HelveticaNeue-BoldItalic, 'Helvetica Neue';}.cls-12{stroke-width:.67px;}</style><symbol id="Minus" viewBox="0 0 64 64"><g><rect class="cls-5" x="14.92" y="26.88" width="34.15" height="10.25"/><path class="cls-5" d="M32,0C14.33,0,0,14.33,0,32s14.33,32,32,32,32-14.33,32-32S49.67,0,32,0Zm0,59c-14.89,0-27-12.11-27-27S17.11,5,32,5s27,12.11,27,27-12.11,27-27,27Z"/></g></symbol><symbol id="Plus" viewBox="0 0 65 65"><g><polygon class="cls-11" points="37.57 15.42 27.32 15.42 27.32 27.38 15.37 27.38 15.37 37.62 27.32 37.62 27.32 49.58 37.57 49.58 37.57 37.62 49.52 37.62 49.52 27.38 37.57 27.38 37.57 15.42"/><path class="cls-11" d="M32.5,.5C14.83,.5,.5,14.83,.5,32.5s14.33,32,32,32,32-14.33,32-32S50.17,.5,32.5,.5Zm0,59c-14.89,0-27-12.11-27-27S17.61,5.5,32.5,5.5s27,12.11,27,27-12.11,27-27,27Z"/></g></symbol></defs><text class="cls-13" transform="translate(12.74 15.43)"><tspan class="cls-1" x="0" y="0">pH &lt;&lt; p</tspan><tspan class="cls-14" x="66.94" y="0">K</tspan></text><text class="cls-2" transform="translate(92.68 21.42) scale(.58)"><tspan x="0" y="0">a</tspan></text><text class="cls-13" transform="translate(291.11 15.43)"><tspan class="cls-1" x="0" y="0">pH &gt;&gt; p</tspan><tspan class="cls-14" x="66.94" y="0">K</tspan></text><text class="cls-2" transform="translate(371.05 21.42) scale(.58)"><tspan x="0" y="0">a</tspan></text><g><path class="cls-8" d="M318.64,107.72c3.59-3.36,8.33-1.42,12.41-.23,2.06,.6,4.07,.95,6.22,.73s4.22-.85,6.3-1.42,4.63-1.28,6.88-.94c1.96,.3,3.77,1.38,5.82,1.02,1.65-.3,2.82-1.58,3.55-3.02,.78-1.55,1.02-3.99,2.59-4.9,3.92-2.26,8.36-.51,12.06,1.33,1.85,.92,3.65,1.95,5.53,2.83s3.96,1.52,5.95,2.25c2.18,.8,4.48,1.61,6.84,1.5,2.05-.1,4.12-1.01,5.91-1.96,4.48-2.39,9.49-2.47,14.27-.95,5.51,1.75,10.12,5.38,14.85,8.55,2.21,1.48,4.33,2.67,7.07,2,.94-.23,1.99-.62,2.61-1.41s.71-1.83,.91-2.77l-.84,.34c.38,.21,1.59,.71,1.75,1.02v-.58c.53-.95,.68,.07,.24-.34-.09-.09-.3-.14-.41-.2-.2-.11-.68-.31-.74-.54l-.84,.65c4.85,2.65,9.17,6.4,12.24,11.02,1.49,2.23,2.79,4.82,2.81,7.56s-1.48,5.12-3.73,6.66c-3.14,2.16-6.92,2.98-10.28,4.69-2.46,1.25-5.34,3.67-3.2,6.57,1.26,1.71,3.46,2.17,5.39,2.69,2.91,.78,5.54,2.26,7.7,4.37,.53,.51,1.34-.29,.81-.81-1.77-1.73-3.85-3.07-6.15-3.99-1.99-.8-4.51-.89-6.21-2.28-3.78-3.09,2.51-5.78,4.81-6.68,3.62-1.41,7.81-2.71,10.26-5.92,3.04-4,1.56-9.05-.89-12.93-3.17-5.02-7.79-9.1-12.98-11.94-.44-.24-.97,.16-.84,.65,.2,.78,1.59,1.65,2.38,1.66,.51,0,.83-.39,.61-.89-.29-.64-1.61-1.12-2.15-1.41-.31-.17-.76-.03-.84,.34-.18,.85-.23,1.98-.92,2.61-1.17,1.05-3.28,1.1-4.7,.72-1.29-.35-2.39-1.23-3.49-1.96s-2.25-1.54-3.38-2.31c-3.84-2.63-7.82-5.19-12.35-6.46-4.22-1.18-8.78-1.22-12.84,.55-2.15,.94-4.25,2.37-6.65,2.55s-4.88-.76-7.16-1.6c-2.1-.77-4.2-1.44-6.21-2.44-1.87-.93-3.69-1.96-5.57-2.85-3.26-1.54-7.05-2.85-10.63-1.58-.82,.29-1.72,.69-2.39,1.25-.58,.48-.79,1.23-1.06,1.92-.67,1.73-1.19,3.9-2.88,4.95-2.02,1.25-4.45-.32-6.52-.62-1.95-.28-4.09,.15-5.99,.61-2.43,.6-4.82,1.47-7.32,1.73s-4.89-.37-7.32-1.11c-4.15-1.26-8.61-2.34-12.12,.95-.54,.5,.27,1.31,.81,.81h0Z"/><path class="cls-8" d="M335.93,107.75c-2.15,3.94,2.47,5.34,5.48,5.95,1.73,.35,3.65,.46,5.3,1.13,2.47,1.01,2.7,4.57,2.68,6.82-.02,3.06-.56,6.42,1.05,9.19,.37,.64,1.36,.06,.99-.58-2.72-4.69,1.07-11.01-2.78-15.37-1.05-1.19-2.47-1.46-3.97-1.75-1.86-.36-3.77-.61-5.57-1.21s-3.27-1.62-2.18-3.61c.35-.65-.63-1.22-.99-.58h0Z"/><path class="cls-8" d="M355.24,105.69c-.84-1.85-.32-4.16,1.25-5.45,1.23-1.01,2.99-1.72,2.91-3.61s-1.98-2.95-3.36-3.93c-1.08-.76-1.72-1.71-1.69-3.07,.03-1.19,.47-2.35,.9-3.45,.27-.69-.84-.98-1.1-.3-.73,1.89-1.48,4.2-.39,6.11,.49,.85,1.28,1.43,2.09,1.96,1,.66,2.71,1.66,2.38,3.12-.22,.98-1.38,1.49-2.12,2.03-.7,.51-1.29,1.12-1.7,1.89-.88,1.65-.92,3.57-.16,5.27,.3,.67,1.29,.09,.99-.58h0Z"/><path class="cls-8" d="M374.41,99.19c-2.1,.46-3.28,2.86-1.88,4.66,.32,.41,.73,.74,1.21,.94,.68,.29,1.62,.11,2.22,.53,1.22,.85,.3,3.03-.11,4.08-.64,1.6-1.41,3.15-2.3,4.64-.6,1-1.45,2.02-1.17,3.26,.33,1.45,1.43,2.88,2.1,4.19,.86,1.68,1.68,3.38,2.46,5.1,.3,.67,1.29,.09,.99-.58-1.24-2.72-2.75-5.31-4.02-8.01-.46-.98-.49-1.57,.05-2.47,.38-.62,.76-1.24,1.12-1.88,.63-1.14,1.2-2.33,1.69-3.53,.63-1.53,1.51-3.75,.33-5.26-.69-.88-1.63-.75-2.6-1.01-2.05-.55-1.7-3.13,.21-3.56,.72-.16,.41-1.26-.3-1.1h0Z"/><path class="cls-8" d="M392.04,105.67c-1.77-2.22-1.42-5.69,.51-7.7,1.59-1.66,5.4-1.71,5.92-4.32,.14-.71-.36-1.64,.17-2.2,.5-.53,1.55-.51,2.2-.59,1.05-.12,2.38-.45,2.88-1.51,.6-1.28-.51-2.28-1.45-2.98-1.47-1.09-3.12-1.86-4.88-2.34-.71-.19-1.01,.91-.3,1.1,1.66,.45,4,1.3,5.17,2.67,1.57,1.85-1.71,1.85-2.77,2.07s-2.15,.8-2.25,1.98c-.06,.73,.35,1.41-.1,2.08-.38,.57-1.13,.88-1.73,1.14-1.15,.51-2.33,.87-3.29,1.72-.88,.77-1.52,1.8-1.91,2.89-.83,2.3-.49,4.86,1.04,6.78,.46,.57,1.26-.24,.81-.81h0Z"/><path class="cls-8" d="M408.76,102.32c-1.14,2.21,.19,4.39,1.25,6.34,.6,1.11,1.37,2.41,1.2,3.72-.2,1.54-1.69,2.3-2.8,3.16-.85,.66-1.66,1.43-1.86,2.54-.25,1.38,.56,2.55,1.27,3.64,.39,.6,.82,1.21,.98,1.92,.27,1.19-.17,2.46-.45,3.62-.51,2.15-1.02,4.3-1.52,6.45-.17,.72,.93,1.02,1.1,.3,.49-2.07,.98-4.15,1.47-6.22,.39-1.66,.96-3.41,.29-5.07-.51-1.28-1.78-2.34-2.01-3.72-.28-1.65,1.41-2.53,2.52-3.37,1.93-1.47,2.64-3.3,1.73-5.61-.81-2.07-3.39-4.81-2.19-7.13,.34-.65-.65-1.23-.99-.58h0Z"/><path class="cls-8" d="M426.71,110.31c-.66-1.47,.88-2.85,2.02-3.48,1.31-.73,2.71-1.26,3.7-2.44,.91-1.08,1.46-2.39,2.13-3.62s1.68-2.67,3.19-2.84c.72-.08,.73-1.23,0-1.14-1.64,.19-2.83,1.29-3.71,2.62-.96,1.45-1.46,3.22-2.69,4.48s-3.18,1.64-4.51,2.87c-1.15,1.06-1.78,2.65-1.11,4.13,.3,.67,1.29,.09,.99-.58h0Z"/><path class="cls-8" d="M438.87,109.76c-.81-1-.42-2.52,.38-3.39,.97-1.06,2.42-1.51,3.78-1.8,1.47-.32,2.9-.59,4.1-1.56,1.01-.82,1.73-1.96,2.03-3.23,.17-.72-.93-1.02-1.1-.3-.33,1.4-1.26,2.58-2.55,3.23-1.47,.74-3.22,.73-4.75,1.35-1.33,.54-2.56,1.42-3.13,2.77-.54,1.26-.44,2.67,.44,3.75,.46,.57,1.27-.24,.81-.81h0Z"/><path class="cls-8" d="M449.62,119.96c-1.19-.36-2.32,.11-3.29,.81-1.1,.79-2.08,1.71-3.22,2.45-2.33,1.51-4.89,2.61-7.43,3.71-.67,.29-.09,1.27,.58,.99,2.33-1,4.67-2.01,6.83-3.33,1.05-.64,2.03-1.36,2.97-2.14s2.01-1.75,3.26-1.38c.71,.21,1.01-.89,.3-1.1h0Z"/><path class="cls-8" d="M453.07,131.46c1.89,.04,3.52-.82,5.09-1.77,1.67-1.01,3.69-2.36,5.74-1.85,.87,.22,1.46,.94,2.31,1.2,.71,.22,1.45,.1,2.11-.21,1.73-.83,2.3-2.74,3.58-4.02,.52-.52-.29-1.33-.81-.81-1.18,1.18-1.78,3.19-3.4,3.86-1.07,.44-1.68-.31-2.55-.76-.68-.35-1.43-.51-2.19-.49-3.71,.09-6.19,3.81-9.87,3.72-.74-.02-.74,1.13,0,1.14h0Z"/><path class="cls-8" d="M437.2,147.29c-1.56-1.59-4.3-1.61-5.71,.2-.64,.83-.94,1.91-.76,2.95,.1,.58,.47,1.09,.57,1.67,.15,.87-.78,1.1-1.43,1.28-1.48,.42-2.97,.78-4.45,1.19-1.06,.29-2.15,.65-2.99,1.38s-1.15,1.71-1.31,2.75c-.17,1.11-.15,2.39-1.1,3.16-.57,.46,.24,1.27,.81,.81,1.7-1.37,.84-3.69,1.92-5.35,.6-.93,1.75-1.3,2.76-1.59,1.35-.39,2.72-.73,4.08-1.1,.89-.24,1.98-.45,2.56-1.25,.69-.96,.12-1.86-.19-2.83-.84-2.69,2.59-4.36,4.45-2.47,.52,.53,1.32-.28,.81-.81h0Z"/><path class="cls-5" d="M458.37,216.15c-2.59-7.14,.05-15.63,6.72-19.5,1.57-.91,3.3-1.53,5.09-1.81,1.95-.3,3.79,.17,5.72,.1,2.9-.11,4.72-2.27,5.97-4.67,.68-1.32,1.24-2.71,1.88-4.06,.7-1.47,1.59-3.49,3.25-4.04,2.46-.8,3.99,2.8,5.05,4.38,1.47,2.19,3.39,4.09,6.25,3.69,3.64-.51,5.93-3.6,8.22-6.13,1.53-1.69,3.16-3.03,5.4-3.63,2.1-.57,4.3-.61,6.39-1.2,3.14-.89,6.22-3.38,6.15-6.89-.02-1.01-1.59-1.01-1.57,0,.08,4.02-4.44,5.41-7.64,5.9-1.87,.29-3.77,.52-5.51,1.3-1.58,.71-2.89,1.86-4.06,3.12-2.22,2.39-5.52,7.31-9.43,5.79-2.38-.92-3.45-3.94-4.92-5.83s-3.69-2.94-5.89-1.46c-2.54,1.71-3.44,5.23-4.72,7.83-.61,1.24-1.31,2.55-2.42,3.43-1.56,1.24-3.37,.82-5.2,.69-3.38-.23-6.81,.79-9.62,2.64-6.69,4.42-9.35,13.29-6.64,20.77,.34,.94,1.86,.54,1.52-.42h0Z"/><path class="cls-5" d="M402.14,42.48c-1.83-5.12-8.3-5.26-12.83-4.71-5.9,.71-12.05,1.76-17.41,4.45-2.92,1.47-5.46,3.51-7.4,6.15l.89-.36c-5.57-1.75-7.22-8.66-10.9-12.56-4.73-5.02-12.3-4.67-18.27-2.3-3.73,1.48-7.14,3.62-10.62,5.59-3.75,2.12-7.65,3.78-11.77,5.05-2,.62-4.02,1.16-6.04,1.68s-3.96,.86-5.84,1.53c-3.27,1.17-4.28,4.36-4.67,7.55-.86,7.05,2.54,14.27,8.53,18.07v-1.36c-6.52,4.55-13.89,7.68-21.7,9.2-.99,.19-.57,1.71,.42,1.52,7.93-1.54,15.46-4.74,22.08-9.36,.49-.34,.52-1.03,0-1.36-5.23-3.32-8.23-9.5-7.85-15.66,.1-1.57,.39-3.24,1.04-4.68,.85-1.89,2.49-2.44,4.37-2.91,3.75-.95,7.51-1.86,11.19-3.05s6.99-2.61,10.26-4.42,6.52-3.89,9.99-5.42c5.84-2.59,13.44-3.45,18.09,1.79,3.74,4.22,5.38,10.77,11.29,12.62,.36,.11,.68-.08,.89-.36,4.15-5.62,11.22-7.72,17.78-8.94,3.15-.58,6.39-1.18,9.61-1.09,2.82,.08,6.3,.75,7.38,3.76,.34,.95,1.86,.54,1.52-.42h0Z"/><path class="cls-5" d="M290.48,142.37c3.41,.68,6.83,1.37,10.24,2.05,1.19,.24,3.16,.27,3.58,1.66,.37,1.23-.29,2.7-.66,3.85-1.81,5.59-2.31,11.85-.25,17.44,3.24,8.79,13.06,14.88,22.1,10.58,1.94-.92,3.68-2.29,4.97-4.02,.64-.85,1.15-1.79,1.52-2.79,.47-1.27,.53-3.16,2.18-3.43,2.63-.42,5.38,2.32,6.47,4.43,1.48,2.87,.76,5.99,.62,9.07-.48,10.9,7.34,20.58,17.85,23,3,.69,5.92,.65,8.96,.35,1.73-.17,3.53-.26,5.04,.75,1.13,.75,1.93,1.9,2.62,3.04,1.37,2.26,2.38,4.63,4.57,6.25,1.89,1.4,4.41,2.1,6.47,.63,.82-.58,.03-1.95-.79-1.36-2.18,1.55-4.81-.23-6.27-1.97s-2.28-4.11-3.72-5.96-3.37-2.98-5.78-3.06c-1.43-.05-2.85,.22-4.27,.32s-2.9,.06-4.34-.13c-5.5-.72-10.69-3.5-14.17-7.84-3.59-4.48-4.99-10.05-4.49-15.71,.25-2.77,.4-5.45-.88-8.01-1.03-2.06-2.8-3.79-4.89-4.75-1.98-.91-4.55-1.04-5.74,1.13-.48,.88-.62,1.9-.97,2.83-.46,1.22-1.2,2.32-2.1,3.26-3.35,3.5-8.63,4.68-13.19,3.21s-8.55-5.6-10.27-10.25c-1.16-3.14-1.47-6.51-1.18-9.83,.16-1.79,.5-3.55,.98-5.28,.39-1.4,.97-2.75,1.17-4.2,.14-1.02,.08-2.1-.52-2.97-.75-1.09-2.04-1.33-3.25-1.58-3.74-.75-7.48-1.5-11.22-2.25-.99-.2-1.41,1.32-.42,1.52h0Z"/><path class="cls-5" d="M471.7,55.14l6.07-1.43c.94-.22,1.88-.51,2.83-.65,1.26-.19,1.84,.41,2.18,1.56,1.04,3.51,.35,7.32,.32,10.91-.03,3.21,.48,6.45,2.48,9.05,1.85,2.41,4.57,4.01,7.42,4.93,3.58,1.16,7.41,1.23,11.14,1.19,1.32-.01,3,.19,3.96-.93s.73-2.73,.77-4.03c.1-3.96,.02-7.98,.31-11.93,.07-1,.28-1.95,1.04-2.65,.69-.64,1.66-1.07,2.5-1.49,1.63-.82,3.36-1.52,5.16-1.81,4.13-.67,7.64,1.55,8.08,5.83,.34,3.26,.26,6.69-.09,9.95s-1.24,6.67-3.07,9.51c-1.67,2.58-4.25,4.38-5.97,6.91s-1.43,4.76-.31,7.37c.5,1.15,1.79,3.35,.25,4.23-.81,.46-2,.42-2.9,.52-1.06,.13-2.13,.25-3.19,.38-1.85,.22-3.71,.4-5.55,.67-1.32,.2-2.69,.51-3.78,1.31-2.36,1.72-1.97,4.9-.52,7.1,2.93,4.41,8.96,5.19,13.2,7.82,1.26,.78,2.34,1.88,3.73,2.44,1.31,.53,2.73,.46,4.03-.06,3-1.21,4.51-4.06,5.9-6.78,.76-1.5,1.57-2.94,2.79-4.11,.73-.7-.38-1.81-1.11-1.11-2.34,2.25-3.13,5.41-5.02,7.96-.96,1.3-2.37,2.55-4.01,2.85-1.94,.35-3.29-1-4.74-2.03-2.21-1.56-4.77-2.48-7.23-3.55-2.29-1-4.86-2.16-6.26-4.34-.85-1.33-1.45-3.31-.22-4.6,1.13-1.17,3.1-1.31,4.62-1.5,1.96-.24,3.93-.47,5.89-.7,1.61-.19,3.71-.1,5.17-.91,2.56-1.43,1.19-4.36,.32-6.38-.59-1.38-1.05-2.74-.53-4.22s1.7-2.73,2.79-3.86c2.16-2.25,4.17-4.37,5.43-7.28s1.77-5.92,2-8.99,.39-6.73-.21-9.89-3-5.49-6.09-6.07-6.5,.57-9.35,2c-1.22,.61-2.63,1.27-3.43,2.43-.97,1.4-.89,3.21-.94,4.84-.1,3.95,.03,7.98-.3,11.92-.1,1.17-.55,1.54-1.72,1.6-.92,.05-1.84,.03-2.76,.03-2.07,0-4.15-.07-6.19-.4-3.73-.6-7.64-2.16-9.92-5.33-2.4-3.34-2.03-7.59-1.85-11.48,.09-1.9,.15-3.8-.11-5.69-.19-1.44-.46-3.33-1.72-4.26-1.43-1.06-3.36-.33-4.9,.04l-6.8,1.61c-.98,.23-.57,1.75,.42,1.52h0Z"/><use width="65" height="65" transform="translate(349.84 128.84) scale(.13)" xlink:href="#Plus"/><use width="65" height="65" transform="translate(414.83 161.99) scale(.13)" xlink:href="#Plus"/><use width="65" height="65" transform="translate(427.63 124.82) scale(.13)" xlink:href="#Plus"/><use width="65" height="65" transform="translate(352.06 77.82) scale(.13)" xlink:href="#Plus"/><use width="65" height="65" transform="translate(436.73 90.78) scale(.13)" xlink:href="#Plus"/><use width="65" height="65" transform="translate(389.68 78.2) scale(.13)" xlink:href="#Plus"/><use width="65" height="65" transform="translate(447.55 92.96) scale(.13)" xlink:href="#Plus"/><use width="65" height="65" transform="translate(470.03 117.22) scale(.13)" xlink:href="#Plus"/><use width="65" height="65" transform="translate(448.46 151.49) scale(.13)" xlink:href="#Plus"/><use width="65" height="65" transform="translate(403.13 133.87) scale(.13)" xlink:href="#Plus"/><use width="65" height="65" transform="translate(373.62 126.3) scale(.13)" xlink:href="#Plus"/><g><line class="cls-10" x1="323.89" y1="186.04" x2="318.96" y2="174.17"/><path class="cls-5" d="M317.44,170.52c1.35,1.45,3.32,3.13,5.02,3.97l-3.31,.15-2.44,2.23c.6-1.8,.8-4.38,.73-6.36Z"/></g><g><line class="cls-10" x1="356.79" y1="194.22" x2="349.85" y2="204.96"/><path class="cls-5" d="M347.71,208.28c.43-1.93,.69-4.51,.42-6.39l2,2.63,3.22,.74c-1.82,.52-4.06,1.82-5.65,3.01Z"/></g><g><line class="cls-10" x1="296.48" y1="86.61" x2="293.52" y2="74.07"/><path class="cls-5" d="M292.62,70.22c1.1,1.65,2.77,3.62,4.31,4.73l-3.29-.38-2.77,1.81c.89-1.68,1.5-4.19,1.75-6.16Z"/></g><g><line class="cls-10" x1="372.99" y1="51.11" x2="372.01" y2="38.24"/><path class="cls-5" d="M371.71,34.3c.83,1.8,2.18,4.01,3.53,5.34l-3.19-.89-3.02,1.36c1.13-1.52,2.13-3.91,2.68-5.81Z"/></g><g><line class="cls-10" x1="326.57" y1="47.64" x2="318.53" y2="37.74"/><path class="cls-5" d="M316.04,34.68c1.71,1.01,4.07,2.05,5.94,2.38l-3.12,1.09-1.7,2.84c.07-1.89-.48-4.43-1.11-6.3Z"/></g><g><line class="cls-10" x1="298.48" y1="152.3" x2="299.18" y2="139.41"/><path class="cls-5" d="M299.39,135.46c.59,1.89,1.64,4.26,2.8,5.75l-3.05-1.29-3.17,.96c1.32-1.36,2.62-3.6,3.41-5.42Z"/></g><g><line class="cls-10" x1="463.55" y1="211.21" x2="451.81" y2="206.75"/><path class="cls-5" d="M448.12,205.34c1.98,.02,4.55-.26,6.33-.92l-2.16,2.51-.05,3.31c-.89-1.67-2.63-3.59-4.12-4.9Z"/></g><g><line class="cls-10" x1="473.25" y1="186.85" x2="480.39" y2="197.45"/><path class="cls-5" d="M482.6,200.72c-1.61-1.16-3.87-2.41-5.71-2.9l3.21-.81,1.95-2.67c-.23,1.88,.08,4.45,.55,6.38Z"/></g><g><line class="cls-10" x1="512.83" y1="188.53" x2="503.71" y2="179.68"/><path class="cls-5" d="M500.88,176.93c1.81,.8,4.29,1.56,6.18,1.66l-2.98,1.45-1.36,3.02c-.16-1.89-.99-4.34-1.84-6.13Z"/></g><g><line class="cls-10" x1="476.47" y1="45.55" x2="473.78" y2="58.16"/><path class="cls-5" d="M472.96,62.03c-.29-1.96-.96-4.46-1.88-6.12l2.81,1.75,3.28-.45c-1.52,1.14-3.15,3.15-4.21,4.82Z"/></g><g><line class="cls-10" x1="485.15" y1="85.29" x2="491.44" y2="74.13"/><path class="cls-5" d="M493.38,70.69c-.31,1.96-.42,4.54-.04,6.4l-2.16-2.51-3.26-.55c1.79-.63,3.94-2.06,5.46-3.34Z"/></g><g><line class="cls-10" x1="515.29" y1="74.47" x2="505.08" y2="67"/><path class="cls-5" d="M501.9,64.67c1.91,.54,4.46,.95,6.35,.79l-2.75,1.85-.93,3.18c-.42-1.85-1.58-4.16-2.68-5.81Z"/></g><g><line class="cls-10" x1="518.87" y1="69.22" x2="530.8" y2="65.31"/><path class="cls-5" d="M534.55,64.08c-1.55,1.23-3.38,3.07-4.35,4.7l.1-3.31-2.04-2.61c1.75,.74,4.3,1.14,6.28,1.22Z"/></g><g><line class="cls-10" x1="523.86" y1="96.12" x2="511.37" y2="95.29"/><path class="cls-5" d="M507.43,95.03c1.9-.56,4.28-1.58,5.79-2.73l-1.33,3.03,.92,3.18c-1.34-1.34-3.56-2.67-5.37-3.48Z"/></g><g><line class="cls-10" x1="498.21" y1="120.12" x2="507.81" y2="111.84"/><path class="cls-5" d="M510.8,109.25c-.96,1.74-1.93,4.13-2.2,6.01l-1.18-3.09-2.89-1.62c1.9,0,4.41-.61,6.27-1.3Z"/></g><g><line class="cls-10" x1="523.63" y1="109.97" x2="525.83" y2="122.68"/><path class="cls-5" d="M526.5,126.57c-1-1.71-2.55-3.79-4.02-4.98l3.26,.58,2.87-1.64c-.98,1.62-1.75,4.09-2.11,6.04Z"/></g><g><line class="cls-10" x1="367.27" y1="211.34" x2="369.95" y2="198.73"/><path class="cls-5" d="M370.77,194.87c.29,1.96,.96,4.46,1.88,6.12l-2.81-1.75-3.28,.45c1.52-1.14,3.15-3.15,4.21-4.82Z"/></g><g><line class="cls-10" x1="335.12" y1="178.99" x2="345.29" y2="171.46"/><path class="cls-5" d="M348.46,169.11c-1.08,1.66-2.24,3.98-2.64,5.83l-.95-3.17-2.76-1.83c1.89,.15,4.44-.27,6.35-.83Z"/></g><g><line class="cls-10" x1="391.09" y1="30.55" x2="388.99" y2="43.28"/><path class="cls-5" d="M388.35,47.18c-.38-1.95-1.17-4.41-2.16-6.02l2.89,1.62,3.25-.61c-1.46,1.21-3,3.29-3.98,5.01Z"/></g><g><line class="cls-10" x1="346.16" y1="25.28" x2="345.24" y2="38.16"/><path class="cls-5" d="M344.96,42.1c-.56-1.9-1.57-4.29-2.71-5.8l3.02,1.34,3.18-.9c-1.34,1.34-2.68,3.55-3.5,5.36Z"/></g><g><line class="cls-10" x1="290.19" y1="53.56" x2="302.38" y2="56.5"/><path class="cls-5" d="M306.22,57.43c-1.97,.23-4.48,.84-6.17,1.71l1.82-2.76-.36-3.29c1.1,1.55,3.06,3.23,4.71,4.34Z"/></g><g><line class="cls-10" x1="516.26" y1="170.64" x2="526.44" y2="178.16"/><path class="cls-5" d="M529.61,180.51c-1.9-.55-4.46-.98-6.35-.83l2.76-1.83,.95-3.17c.41,1.85,1.56,4.17,2.64,5.83Z"/></g><g><line class="cls-9" x1="383.7" y1="96.73" x2="386.17" y2="80.3"/><path class="cls-6" d="M386.76,76.4c.4,1.94,1.22,4.39,2.24,5.99l-2.91-1.58-3.24,.65c1.44-1.23,2.95-3.33,3.91-5.07Z"/></g><g><line class="cls-9" x1="350.03" y1="99.03" x2="348.13" y2="82.53"/><path class="cls-6" d="M347.68,78.61c.9,1.77,2.33,3.92,3.73,5.2l-3.22-.76-2.96,1.47c1.07-1.56,1.98-3.99,2.45-5.91Z"/></g><g><line class="cls-9" x1="435.12" y1="154.06" x2="448.59" y2="163.2"/><path class="cls-6" d="M451.86,165.42c-1.92-.47-4.49-.79-6.37-.56l2.68-1.94,.82-3.21c.48,1.83,1.73,4.1,2.88,5.71Z"/></g><g><line class="cls-9" x1="367.51" y1="108.03" x2="369.41" y2="124.53"/><path class="cls-6" d="M369.86,128.45c-.9-1.77-2.33-3.92-3.73-5.2l3.22,.76,2.96-1.47c-1.07,1.56-1.98,3.99-2.45,5.91Z"/></g><g><line class="cls-9" x1="340.91" y1="118.76" x2="347.05" y2="134.13"/><path class="cls-6" d="M348.51,137.79c-1.33-1.47-3.28-3.17-4.96-4.04l3.31-.11,2.47-2.2c-.63,1.79-.86,4.37-.82,6.35Z"/></g><g><line class="cls-9" x1="459.63" y1="136.18" x2="475.02" y2="131.17"/><path class="cls-6" d="M478.78,129.95c-1.55,1.23-3.38,3.06-4.36,4.69l.11-3.31-2.03-2.61c1.74,.74,4.3,1.15,6.28,1.23Z"/></g><g><line class="cls-9" x1="420.26" y1="146.97" x2="413.78" y2="162.19"/><path class="cls-6" d="M412.23,165.82c.09-1.98-.09-4.56-.67-6.36l2.42,2.25,3.3,.18c-1.71,.83-3.69,2.49-5.05,3.93Z"/></g><g><line class="cls-9" x1="446.25" y1="113.78" x2="458.6" y2="103.08"/><path class="cls-6" d="M461.58,100.49c-.95,1.74-1.92,4.14-2.19,6.01l-1.19-3.09-2.89-1.61c1.9,0,4.41-.62,6.26-1.31Z"/></g><g><line class="cls-9" x1="422.11" y1="101.91" x2="433.55" y2="90.19"/><path class="cls-6" d="M436.31,87.37c-.8,1.81-1.57,4.28-1.68,6.17l-1.44-2.98-3.01-1.37c1.89-.15,4.34-.98,6.13-1.83Z"/></g><g><line class="cls-9" x1="437.85" y1="117.74" x2="422.91" y2="124.02"/><path class="cls-6" d="M419.27,125.55c1.45-1.36,3.11-3.33,3.95-5.04l.17,3.3,2.24,2.43c-1.8-.59-4.38-.78-6.36-.7Z"/></g><g><line class="cls-10" x1="310.61" y1="161.64" x2="301.02" y2="169.93"/><path class="cls-5" d="M298.03,172.51c.96-1.74,1.93-4.13,2.2-6.01l1.18,3.09,2.89,1.62c-1.9,0-4.41,.61-6.27,1.3Z"/></g><g><ellipse class="cls-3" cx="425.8" cy="155.07" rx="3.93" ry="3.85"/><use width="64" height="64" transform="translate(421.87 151.22) scale(.12)" xlink:href="#Minus"/></g><g><ellipse class="cls-3" cx="459.75" cy="127.42" rx="3.93" ry="3.85"/><use width="64" height="64" transform="translate(455.82 123.57) scale(.12)" xlink:href="#Minus"/></g><g><ellipse class="cls-3" cx="440.23" cy="148.93" rx="3.93" ry="3.85"/><use width="64" height="64" transform="translate(436.3 145.08) scale(.12)" xlink:href="#Minus"/></g><g><ellipse class="cls-3" cx="444.15" cy="123.9" rx="3.93" ry="3.85"/><use width="64" height="64" transform="translate(440.23 120.06) scale(.12)" xlink:href="#Minus"/></g><g><ellipse class="cls-3" cx="441.48" cy="104.34" rx="3.93" ry="3.85"/><use width="64" height="64" transform="translate(437.55 100.49) scale(.12)" xlink:href="#Minus"/></g><g><ellipse class="cls-3" cx="429.73" cy="104.9" rx="3.93" ry="3.85"/><use width="64" height="64" transform="translate(425.8 101.05) scale(.12)" xlink:href="#Minus"/></g><g><ellipse class="cls-3" cx="390.32" cy="98.49" rx="3.93" ry="3.85"/><use width="64" height="64" transform="translate(386.39 94.64) scale(.12)" xlink:href="#Minus"/></g><g><ellipse class="cls-3" cx="376.71" cy="108.55" rx="3.93" ry="3.85"/><use width="64" height="64" transform="translate(372.78 104.7) scale(.12)" xlink:href="#Minus"/></g><g><ellipse class="cls-3" cx="411.49" cy="113.45" rx="3.93" ry="3.85"/><use width="64" height="64" transform="translate(407.56 109.6) scale(.12)" xlink:href="#Minus"/></g><g><ellipse class="cls-3" cx="355.02" cy="100.49" rx="3.93" ry="3.85"/><use width="64" height="64" transform="translate(351.09 96.64) scale(.12)" xlink:href="#Minus"/></g><g><ellipse class="cls-3" cx="344.1" cy="114.53" rx="3.93" ry="3.85"/><use width="64" height="64" transform="translate(340.18 110.68) scale(.12)" xlink:href="#Minus"/></g></g><g><g><path class="cls-7" d="M51.4,72.65c3.83-3.58,8.93-1.51,13.29-.25,2.21,.64,4.38,1.01,6.7,.77s4.57-.92,6.83-1.54,4.85-1.3,7.22-.97c2.13,.3,4.11,1.49,6.33,1.08,1.76-.33,3-1.7,3.77-3.24,.81-1.61,1.08-4.2,2.69-5.15,4.07-2.39,8.74-.7,12.63,1.19,1.97,.96,3.88,2.03,5.85,2.98s4.09,1.61,6.18,2.37c2.35,.86,4.77,1.78,7.31,1.84,2.3,.05,4.55-.86,6.59-1.87,2.54-1.26,4.93-2.19,7.8-2.34,2.56-.13,5.1,.25,7.55,.99,5.87,1.76,10.78,5.54,15.8,8.9,2.33,1.57,4.56,3.05,7.5,2.55,1.14-.19,2.52-.62,3.28-1.55,.69-.85,.8-1.98,1.02-3.01l-.9,.37c.49,.26,.98,.53,1.45,.82,.29,.18,.45,.47,.36,.13l.16-.59c.6-.49,.53,.02,.17-.25-.13-.1-.33-.15-.47-.23-.2-.11-.71-.33-.77-.56l-.9,.69c5.1,2.77,9.63,6.66,12.93,11.46,1.68,2.44,3.18,5.31,3.2,8.34s-1.54,5.37-3.89,7.01c-3.33,2.33-7.37,3.21-10.97,4.99-2.64,1.31-5.91,3.88-3.62,7.04,1.37,1.89,3.81,2.36,5.93,2.93,3.06,.82,5.85,2.41,8.12,4.62,.56,.55,1.43-.31,.86-.86-1.96-1.9-4.26-3.36-6.81-4.34-2.06-.8-4.55-.9-6.35-2.28-4.22-3.25,2.55-6.18,5.01-7.14,3.81-1.48,8.21-2.82,10.88-6.12,3.49-4.32,1.85-9.88-.88-14.11-3.41-5.29-8.31-9.59-13.82-12.58-.47-.26-1.03,.17-.9,.69,.22,.88,2.28,2.26,3.11,1.58,.17-.14,.21-.4,.16-.59-.2-.8-1.79-1.36-2.37-1.68-.33-.18-.81-.03-.9,.37-.25,1.16-.29,2.45-1.46,3.08-1.4,.75-3.14,.88-4.65,.44-1.36-.4-2.54-1.32-3.7-2.1s-2.41-1.64-3.61-2.46c-4.19-2.85-8.53-5.6-13.48-6.92-4.48-1.2-9.29-1.17-13.57,.72-2.41,1.06-4.75,2.62-7.46,2.68s-5.32-1.04-7.83-1.95c-2.19-.79-4.33-1.51-6.42-2.57-1.91-.96-3.78-2.01-5.73-2.91-3.47-1.62-7.49-2.96-11.28-1.61-.9,.32-2.01,.77-2.71,1.45-.53,.51-.78,1.44-1.04,2.12-.69,1.81-1.28,4.05-3.07,5.11-2.14,1.26-4.7-.36-6.88-.69-2.02-.31-4.27,.13-6.24,.6-2.68,.64-5.3,1.6-8.05,1.89s-5.2-.37-7.78-1.15c-4.46-1.35-9.28-2.55-13.06,.98-.58,.54,.29,1.4,.86,.86h0Z"/><path class="cls-7" d="M69.92,72.68c-1.44,2.66,.91,5.23,3.4,5.96,3.18,.93,7.68-.3,9.69,3.04,.82,1.36,1.05,3.03,1.18,4.59,.17,1.94,.28,3.88,.42,5.83,.11,1.51-.09,3.5,.65,4.87,.58,1.06,1.92,1.57,2.96,.85,.64-.45,.03-1.51-.62-1.06-1.73,1.21-1.71-3.87-1.77-4.66-.12-1.64-.23-3.28-.35-4.91-.16-2.27-.36-4.77-1.78-6.65s-3.85-2.41-6.16-2.58c-1.63-.12-3.39-.1-4.88-.86-1.34-.68-2.49-2.3-1.69-3.79,.37-.69-.68-1.31-1.06-.62h0Z"/><path class="cls-7" d="M90.61,70.77c-.89-1.99-.35-4.49,1.34-5.89,1.34-1.11,3.25-1.91,3.1-3.97s-2.22-3.14-3.73-4.24c-2.44-1.79-1.64-4.53-.71-6.94,.28-.73-.9-1.05-1.18-.32-.77,1.98-1.56,4.4-.5,6.44,.52,.99,1.41,1.66,2.32,2.26,1.06,.71,2.61,1.6,2.56,3.06-.05,1.29-1.46,1.9-2.37,2.58-.75,.56-1.37,1.26-1.79,2.1-.88,1.76-.9,3.76-.1,5.55,.32,.72,1.38,.1,1.06-.62h0Z"/><path class="cls-7" d="M111.15,63.52c-2.27,.5-3.54,3.12-1.96,5.03,.37,.44,.85,.81,1.39,1,.83,.3,2.03,.03,2.57,.86,.76,1.17-.07,3.02-.53,4.14-.68,1.67-1.5,3.29-2.43,4.84-.69,1.15-1.58,2.23-1.16,3.64,.47,1.57,1.58,3.07,2.33,4.53,.87,1.7,1.7,3.43,2.5,5.17,.33,.71,1.38,.09,1.06-.62-1.33-2.91-2.9-5.68-4.3-8.55-.19-.39-.5-.9-.49-1.34,.01-.48,.31-.9,.55-1.29,.38-.63,.78-1.25,1.14-1.89,.68-1.21,1.28-2.47,1.82-3.75,.69-1.66,1.68-4.06,.42-5.72-.74-.96-1.74-.81-2.8-1.09-2.19-.59-1.82-3.34,.23-3.79,.77-.17,.44-1.35-.32-1.18h0Z"/><path class="cls-7" d="M130.13,70.63c-1.85-2.85-1.73-6.9-.02-9.8,.91-1.54,2.2-2.23,3.73-3.03,1.2-.62,2.48-1.4,2.94-2.76,.29-.86,.06-1.61,.04-2.48-.03-1.34,1.11-1.7,2.22-1.85,1.31-.18,2.73-.46,3.41-1.75,.83-1.58-.36-2.99-1.49-4-1.52-1.36-3.27-2.38-5.2-3.03-.75-.25-1.07,.93-.32,1.18,2.03,.69,4.15,1.9,5.54,3.57,2.09,2.53-1.89,2.62-3.26,3.06s-2.18,1.4-2.13,2.82c.04,.95,.34,1.77-.26,2.64-.47,.68-1.27,1.1-1.98,1.47-1.22,.65-2.43,1.18-3.36,2.23s-1.57,2.36-1.96,3.71c-.81,2.84-.6,6.11,1.04,8.63,.43,.66,1.49,.05,1.06-.62h0Z"/><path class="cls-7" d="M147.95,66.9c-1.25,2.39,.26,4.76,1.4,6.86,.61,1.13,1.37,2.43,1.25,3.76-.15,1.62-1.7,2.47-2.87,3.35-.97,.73-1.92,1.57-2.14,2.82-.25,1.39,.51,2.6,1.24,3.7,.45,.69,.98,1.4,1.17,2.22,.29,1.25-.18,2.58-.46,3.79-.55,2.31-1.1,4.62-1.65,6.93-.18,.76,1,1.09,1.18,.32,.51-2.15,1.02-4.31,1.54-6.46,.43-1.8,1.08-3.72,.37-5.53-.55-1.38-1.96-2.55-2.18-4.04-.26-1.75,1.59-2.69,2.76-3.57,2.11-1.6,2.77-3.61,1.75-6.09-.88-2.15-3.55-5.02-2.29-7.44,.36-.7-.69-1.32-1.06-.62h0Z"/><path class="cls-7" d="M166.11,74.87c-.35-1.72-.02-3.72,.9-5.23s2.26-2.46,2.95-4.08,1.05-3.49,1.47-5.26c.22-.92,.45-1.83,.78-2.71,.25-.68,.68-1.94,1.49-2.16,.76-.21,.44-1.39-.32-1.18-1.62,.45-2.25,2.6-2.67,4.01-.64,2.14-.92,4.39-1.72,6.48-.73,1.9-2.47,3.03-3.33,4.84s-1.11,3.74-.73,5.62c.16,.77,1.33,.44,1.18-.32h0Z"/><path class="cls-7" d="M180.3,75.72c-.92-1.21-.64-2.93,.32-4.05,1.04-1.21,2.63-1.74,4.15-2.08s3.04-.69,4.29-1.74c1.1-.93,1.86-2.25,2.18-3.66,.17-.77-1.01-1.09-1.18-.32-.34,1.5-1.24,2.84-2.58,3.61-1.53,.88-3.42,.88-5.05,1.54-1.45,.59-2.81,1.55-3.47,3.02-.61,1.37-.65,3.06,.29,4.29,.47,.62,1.53,0,1.06-.62h0Z"/><path class="cls-7" d="M191.72,85.67c-1.28-.38-2.48,.12-3.52,.86-1.18,.84-2.23,1.82-3.45,2.61-2.5,1.61-5.24,2.78-7.96,3.95-.72,.31-.1,1.36,.62,1.06,2.49-1.07,5-2.14,7.32-3.55,1.12-.68,2.17-1.45,3.18-2.28s2.16-1.86,3.49-1.46c.76,.23,1.08-.95,.32-1.18h0Z"/><path class="cls-7" d="M195.58,97.93c2.03,.05,3.79-.87,5.49-1.89,1.81-1.08,3.98-2.51,6.2-1.97,.94,.23,1.58,1,2.49,1.28,.76,.24,1.56,.11,2.27-.23,1.85-.88,2.47-2.92,3.86-4.28,.56-.55-.3-1.42-.86-.86-1.28,1.26-1.92,3.4-3.67,4.11-1.15,.46-1.81-.32-2.76-.81-.73-.38-1.54-.55-2.36-.53-3.99,.1-6.68,4.05-10.65,3.96-.79-.02-.79,1.2,0,1.22h0Z"/><path class="cls-7" d="M178.41,114.78c-1.67-1.69-4.61-1.71-6.12,.22-.69,.88-1.01,2.03-.81,3.14,.11,.62,.5,1.16,.61,1.77,.16,.93-.84,1.17-1.53,1.36-1.58,.45-3.19,.83-4.77,1.27-1.13,.31-2.3,.69-3.2,1.47s-1.23,1.82-1.41,2.93c-.19,1.18-.16,2.55-1.18,3.36-.61,.49,.26,1.35,.86,.86,1.81-1.45,.9-3.93,2.05-5.69,.64-.99,1.88-1.38,2.95-1.69,1.45-.41,2.91-.78,4.37-1.17,.95-.25,2.12-.48,2.74-1.33,.74-1.02,.12-1.98-.2-3.02-.9-2.88,2.79-4.63,4.77-2.63,.55,.56,1.42-.3,.86-.86h0Z"/><use width="65" height="65" transform="translate(87.47 41.86) scale(.13)" xlink:href="#Plus"/><use width="65" height="65" transform="translate(87.49 91.77) scale(.13)" xlink:href="#Plus"/><use width="65" height="65" transform="translate(112.41 91.63) scale(.13)" xlink:href="#Plus"/><use width="65" height="65" transform="translate(188.46 56.53) scale(.13)" xlink:href="#Plus"/><use width="65" height="65" transform="translate(172.89 48.73) scale(.13)" xlink:href="#Plus"/><use width="65" height="65" transform="translate(169.68 92.23) scale(.13)" xlink:href="#Plus"/><use width="65" height="65" transform="translate(213.07 82.76) scale(.13)" xlink:href="#Plus"/><use width="65" height="65" transform="translate(154.19 130.3) scale(.13)" xlink:href="#Plus"/><use width="65" height="65" transform="translate(189.7 120.65) scale(.13)" xlink:href="#Plus"/><use width="65" height="65" transform="translate(127.54 37.14) scale(.13)" xlink:href="#Plus"/><use width="65" height="65" transform="translate(141.93 100.49) scale(.13)" xlink:href="#Plus"/></g><g><path class="cls-5" d="M140.82,223.86c1.23-10.8-9.82-17.36-18.74-19.77-1.31-.35-2.64-.66-3.97-.92s-3.03-.35-3.63-1.82c-.42-1.04-.43-2.2-.85-3.26-.36-.92-.89-1.75-1.53-2.49-2.91-3.38-7.79-4.58-12.08-4.49-3.2,.07-6.41,.6-9.58,.98s-6.42,.78-9.62,1.17c-2.98,.36-5.97,.79-8.97,1.04-2.76,.23-5.65,.27-8.29-.71-2.49-.93-4.47-2.9-7.16-3.33-2.11-.33-4.26,.28-5.99,1.5s-2.96,2.82-3.66,4.73c-.84,2.28-.33,4.39,.15,6.68,.39,1.86,.4,3.54-.86,5.06-.88,1.06-1.95,1.94-2.78,3.05-1.74,2.32-2.45,5.28-4.46,7.41-3.84,4.08-10.32,4.51-15.55,4.89-.99,.07-1,1.63,0,1.56,4.49-.33,9.25-.74,13.31-2.87,1.88-.98,3.49-2.38,4.65-4.16,1.45-2.22,2.21-4.82,4.05-6.8,1.56-1.68,3.27-3.13,3.45-5.57,.19-2.57-1.27-5.01-.82-7.57,.4-2.25,1.93-4.29,3.87-5.45,2.25-1.35,4.68-1.22,6.96,0s4.26,2.55,6.87,2.99,5.35,.25,8.01-.04c6.03-.67,12.05-1.46,18.08-2.19,5.37-.65,11.12-1.79,16.17,.8,1.89,.97,3.67,2.45,4.41,4.51s.53,4.23,2.83,5.22c1.15,.49,2.45,.6,3.66,.86,1.54,.33,3.06,.71,4.56,1.18,2.87,.89,5.66,2.07,8.18,3.73,4.68,3.08,8.44,8.23,7.78,14.07-.11,.99,1.44,.99,1.56,0h0Z"/><g><line class="cls-12" x1="78.61" y1="187.32" x2="83.7" y2="199.95"/><path class="cls-5" d="M85.2,203.67c-1.36-1.49-3.34-3.22-5.06-4.09l3.36-.12,2.5-2.24c-.63,1.82-.86,4.44-.81,6.46Z"/></g><g><line class="cls-12" x1="38.02" y1="200.19" x2="53.17" y2="204.61"/><path class="cls-5" d="M57.03,205.73c-2.01,.14-4.59,.64-6.34,1.45l1.98-2.72-.21-3.36c1.04,1.62,2.96,3.43,4.57,4.63Z"/></g><g><line class="cls-12" x1="58.15" y1="196.54" x2="55.37" y2="183.56"/><path class="cls-5" d="M54.52,179.64c1.08,1.7,2.74,3.74,4.28,4.9l-3.33-.46-2.85,1.78c.93-1.69,1.61-4.23,1.9-6.22Z"/></g><g><line class="cls-12" x1="33.08" y1="231.59" x2="26.65" y2="219.42"/><path class="cls-5" d="M24.77,215.87c1.5,1.34,3.65,2.86,5.45,3.55l-3.33,.47-2.26,2.49c.44-1.88,.4-4.51,.14-6.5Z"/></g><g><line class="cls-12" x1="112.48" y1="209.68" x2="124.13" y2="200.56"/><path class="cls-5" d="M127.3,198.08c-1.06,1.72-2.17,4.1-2.53,5.99l-1.05-3.2-2.85-1.79c1.92,.1,4.51-.4,6.43-1.01Z"/></g></g><g><path class="cls-8" d="M47.85,104.74c.3,2.88,2.49,4.59,3.91,6.93,1.72,2.84,1.32,6.18,.25,9.17-2.09,5.88-7.16,10.9-7,17.48,.08,3.05,1.61,5.39,3.06,7.95,1.72,3.01,1.98,5.96,.32,9.08-2.77,5.22-8.37,8.84-13.69,11.04-6.01,2.49-12.51,3.58-18.95,4.22-.99,.1-1,1.66,0,1.56,11.4-1.13,24.3-3.8,31.99-13.1,1.94-2.35,3.54-5.29,3.41-8.42s-1.95-5.32-3.31-7.85c-3.73-6.98,2.01-13.26,4.78-19.37,1.37-3.02,2.38-6.45,1.61-9.77-.36-1.55-1.15-2.89-2.11-4.14-1.11-1.44-2.53-2.88-2.72-4.76-.1-.99-1.66-1-1.56,0h0Z"/><path class="cls-8" d="M31.65,168.95c1.36,.83,2.71,1.71,3.76,2.92,.51,.59,.93,1.29,1.14,2.05,.24,.9,.14,1.84,.33,2.75,.63,3.01,3.77,4.64,6.51,5.3,.97,.23,1.39-1.27,.41-1.5-1.39-.33-2.79-.87-3.89-1.8-.51-.43-.95-.94-1.25-1.55-.38-.8-.34-1.65-.43-2.51-.34-3.34-3.15-5.39-5.8-7.02-.86-.52-1.64,.82-.79,1.34h0Z"/><path class="cls-8" d="M43.92,162.64c.99-1.91,.61-3.96-.21-5.87-1-2.31-2.47-4.44-3.76-6.59-1.21-2.02-2.32-4.18-3.77-6.05-1.13-1.45-2.58-2.66-4.5-2.67-1,0-1,1.55,0,1.56,1.7,.01,2.88,1.44,3.76,2.73,1.14,1.68,2.12,3.48,3.16,5.22s2.16,3.48,3.12,5.28c.89,1.67,1.79,3.78,.84,5.61-.46,.89,.88,1.68,1.34,.79h0Z"/><path class="cls-8" d="M49.94,128.48c1.67-2.16,4.93-.24,6.89,.43,2.18,.74,5.13,1.03,6.49-1.26,.51-.86-.83-1.65-1.34-.79-1.25,2.1-4.53,.63-6.19-.04-2.15-.86-5.28-1.6-6.94,.55-.61,.78,.49,1.89,1.1,1.1h0Z"/><path class="cls-8" d="M52.24,110.05c-1.84-1.55-4.15-2.61-6.6-2.31s-4.53,2.03-6.38,3.68c-.75,.67,.36,1.77,1.1,1.1,1.53-1.38,3.21-2.93,5.34-3.23,2-.29,3.95,.6,5.45,1.86,.76,.64,1.87-.45,1.1-1.1h0Z"/><use width="65" height="65" transform="translate(49.07 95.12) rotate(63.65) scale(.13)" xlink:href="#Plus"/><use width="65" height="65" transform="translate(67.09 118.43) rotate(63.65) scale(.13)" xlink:href="#Plus"/><use width="65" height="65" transform="translate(29.37 137.22) rotate(63.65) scale(.13)" xlink:href="#Plus"/><use width="65" height="65" transform="translate(49.41 176.9) rotate(63.65) scale(.13)" xlink:href="#Plus"/><use width="65" height="65" transform="translate(39.63 110.03) rotate(63.65) scale(.13)" xlink:href="#Plus"/></g><g><path class="cls-5" d="M185.62,23.05c-3.04,5.28-7.1,9.95-11.95,13.64-2.34,1.78-5,3.74-7.88,4.5-3.19,.84-6.08-.59-8.65-2.37s-5.05-3.8-7.75-5.48-5.69-3.26-8.7-4.56c-5.35-2.33-11.91-4.92-17.74-2.8-2.27,.83-4.41,2.32-5.59,4.47-.61,1.11-.85,2.3-1.07,3.53-.27,1.45-.93,4.17-2.99,3.68-1.15-.28-2.13-1.66-3.06-2.37-1.06-.81-2.21-1.47-3.42-2.01-2.4-1.06-4.96-1.61-7.56-1.91-2.74-.32-5.5-.33-8.26-.25-2.4,.07-4.81,.18-7.18,.64-2.2,.43-4.45,1.14-6.25,2.52s-2.58,3.09-2.95,5.25c-.12,.67-.2,1.41-.84,1.8-.57,.35-1.49,.25-2.13,.25-1.59-.01-3.17-.06-4.75-.13-3.2-.14-6.4-.37-9.6-.56-6.23-.38-12.51-.68-18.73,.03-2.91,.34-5.8,.88-8.6,1.76-1.4,.44-2.77,.96-4.11,1.56-1.22,.54-2.6,1.1-3.51,2.12-.8,.9-.98,2.08-1.07,3.25-.14,1.87-.05,3.75,.01,5.62,.12,3.32,.32,6.71-.49,9.97-1.39,5.62-5.73,9.81-8.27,14.87-1.16,2.31-2.2,5.04-1.79,7.66,.38,2.44,2.19,4.14,4.3,5.21,4.37,2.21,12.13,2.27,13.62,7.98,.75,2.87-.85,5.14-3.81,5.39-1.55,.13-3.13-.04-4.69-.07-1.77-.02-3.53,.02-5.3,.12-4.88,.29-12.03,.33-14.21,5.71-1.96,4.84,.74,9.83,4.58,12.77,2.25,1.73,4.82,2.93,7.41,4.06s5.76,2.37,7.25,5.04c.75,1.34,1.03,2.99,.28,4.39s-2.04,2.27-3.01,3.42c-1.71,2.02-2.9,4.49-3.4,7.09s-.35,5.04,.39,7.47c.29,.96,1.79,.55,1.5-.41-.84-2.78-.82-5.7,.08-8.46,.41-1.25,1-2.44,1.74-3.53,.89-1.32,2.1-2.3,3.13-3.5,1.64-1.92,2-4.27,.97-6.59-1.16-2.59-3.58-4.16-6.06-5.33-4.91-2.31-11.47-4.41-13.42-10.1-.75-2.19-.75-4.82,.57-6.81,1.79-2.68,5.45-2.98,8.36-3.31,3.35-.38,6.73-.53,10.1-.44,2.57,.07,5.6,.46,7.66-1.45,1.55-1.44,1.88-3.72,1.41-5.71-.55-2.34-2.21-4.08-4.24-5.27-2.38-1.39-5.07-1.97-7.66-2.81-2.37-.78-5.22-1.99-5.93-4.64-.79-2.9,.99-6.31,2.42-8.74s2.97-4.46,4.4-6.73c1.51-2.4,2.78-4.96,3.32-7.76,.62-3.2,.46-6.48,.34-9.72-.06-1.64-.11-3.28-.03-4.92,.04-.83,.05-1.77,.54-2.48s1.39-1.1,2.14-1.47c2.83-1.39,5.85-2.35,8.93-2.98,12.26-2.52,24.87-.09,37.23,0,1.1,0,2.28,.03,3.21-.66s1.14-1.8,1.32-2.88c.41-2.41,1.77-4,3.96-5.06,4.45-2.15,10.08-1.99,14.9-1.88,5.43,.12,11.23,.99,15.37,4.81,.81,.75,1.59,1.57,2.73,1.78,1.2,.22,2.36-.36,3.15-1.23,1.87-2.04,1.23-5.13,2.77-7.36,3.96-5.74,12.07-3.87,17.5-1.87,6.08,2.24,11.81,5.4,16.98,9.3,2.26,1.7,4.54,3.54,7.27,4.44s5.54,.39,8.11-.9c5.09-2.58,9.68-6.63,13.32-10.99,1.77-2.12,3.35-4.39,4.73-6.79,.5-.87-.84-1.66-1.34-.79h0Z"/><g><line class="cls-12" x1="87.07" y1="23.88" x2="90.52" y2="36.87"/><path class="cls-5" d="M91.56,40.75c-1.16-1.65-2.92-3.6-4.52-4.68l3.35,.29,2.76-1.92c-.85,1.73-1.4,4.3-1.59,6.31Z"/></g><g><line class="cls-12" x1="116.03" y1="22.01" x2="123.9" y2="32.78"/><path class="cls-5" d="M126.27,36.03c-1.68-1.11-4.03-2.3-5.91-2.72l3.23-.94,1.88-2.79c-.16,1.92,.25,4.52,.8,6.46Z"/></g><g><line class="cls-12" x1="174.67" y1="30.26" x2="176.85" y2="43.51"/><path class="cls-5" d="M177.5,47.47c-1-1.75-2.56-3.87-4.04-5.1l3.31,.62,2.94-1.64c-1.01,1.64-1.81,4.15-2.2,6.12Z"/></g><g><line class="cls-12" x1="5" y1="101.26" x2="10.19" y2="113.14"/><path class="cls-5" d="M11.8,116.82c-1.4-1.45-3.43-3.12-5.17-3.95l3.36-.22,2.44-2.31c-.58,1.84-.74,4.46-.62,6.48Z"/></g><g><line class="cls-12" x1="15.75" y1="61.95" x2="25.85" y2="70.57"/><path class="cls-5" d="M28.91,73.17c-1.89-.69-4.45-1.3-6.38-1.28l2.92-1.66,1.18-3.15c.28,1.91,1.29,4.34,2.27,6.1Z"/></g><g><line class="cls-12" x1="41.43" y1="49.09" x2="36.2" y2="36.76"/><path class="cls-5" d="M34.63,33.07c1.38,1.46,3.4,3.15,5.13,4l-3.36,.18-2.46,2.29c.6-1.83,.78-4.46,.69-6.47Z"/></g><g><line class="cls-12" x1="9.11" y1="151.86" x2="22.05" y2="149.38"/><path class="cls-5" d="M25.99,148.62c-1.72,1.04-3.8,2.66-4.99,4.18l.53-3.32-1.72-2.89c1.67,.97,4.19,1.7,6.18,2.04Z"/></g><g><line class="cls-12" x1="21.78" y1="99.66" x2="31.83" y2="109.21"/><path class="cls-5" d="M34.74,111.98c-1.85-.79-4.37-1.54-6.3-1.63l3.01-1.5,1.35-3.08c.18,1.92,1.05,4.4,1.94,6.21Z"/></g></g><g><path class="cls-6" d="M68.94,173.4c3.03-3.79,8.09-4.65,12.68-4.23,5.66,.52,11.1,2.87,16.12,5.43,2.27,1.16,4.52,2.55,7.04,3.1,2.71,.6,5.48,.08,8.11-.67,5.12-1.46,9.9-3.9,14.12-7.13,3.83-2.93,8.34-7.2,13.6-5.77,2.48,.67,4.55,2.36,6.55,3.9s3.88,2.88,6.1,3.92c4.55,2.14,9.69,3.05,14.69,2.46,2.83-.33,5.8-1.26,8.47,.22,2.33,1.29,3.95,3.71,5.18,6,1.5,2.78,2.44,5.89,2.7,9.04,.2,2.34-.3,5.15,2.25,6.35s5.87,1.16,8.52,.94c3-.25,5.89-1.06,8.61-2.35,.9-.43,.12-1.77-.79-1.34-2.66,1.26-5.54,2.02-8.48,2.19-1.31,.07-2.64,.04-3.94-.11s-3.45-.27-4.17-1.5c-.6-1.03-.33-2.6-.41-3.75-.09-1.36-.29-2.71-.6-4.04-.6-2.58-1.62-5.08-2.99-7.34-1.22-2.01-2.75-3.98-4.77-5.24-2.2-1.37-4.65-1.35-7.14-.99-5.58,.82-10.95,.6-16.16-1.8-2.41-1.11-4.5-2.64-6.59-4.25-1.83-1.41-3.7-2.82-5.9-3.6-4.81-1.7-9.24,.89-12.97,3.73-4.4,3.36-8.74,6.39-14.03,8.23-2.66,.93-5.59,1.83-8.44,1.56s-5.44-1.94-7.97-3.22c-5.31-2.69-11.06-5.11-17.06-5.57-4.86-.37-10.24,.73-13.42,4.71-.62,.78,.48,1.88,1.1,1.1h0Z"/><path class="cls-6" d="M84.39,168.63c.32-1.62,1.15-3.08,2.45-4.12,1.16-.93,2.55-1.52,3.62-2.57,2.09-2.06,1.76-5.67-.88-7.12-.88-.48-1.67,.86-.79,1.34,1.02,.56,1.62,1.71,1.51,2.87-.13,1.29-1.22,2.13-2.23,2.79-1.13,.74-2.31,1.4-3.21,2.43-.99,1.13-1.68,2.49-1.97,3.96-.2,.98,1.3,1.4,1.5,.41h0Z"/><path class="cls-6" d="M128.21,195.66c-2.35-.17-4.63-1.55-5.88-3.55s-.64-4.31-1.02-6.56-2.08-3.55-4.11-4.39c-1.03-.43-2.17-.74-3.08-1.4-.65-.47-2.07-1.81-1.32-2.68,.66-.75-.44-1.86-1.1-1.1-1.62,1.86,.17,4.22,1.87,5.28,2.42,1.51,5.97,1.56,6.28,5.09,.12,1.35-.07,2.72,.17,4.06,.21,1.2,.78,2.31,1.53,3.26,1.62,2.06,4.06,3.36,6.67,3.54,1,.07,1-1.49,0-1.56h0Z"/><path class="cls-6" d="M160.2,172.33c-1.64-1.21-3.29-2.42-4.93-3.63-.62-.46-2.97-2-1.82-2.92,.53-.42,1.38-.51,2.02-.59,.88-.11,1.76-.14,2.64-.22,1.49-.13,3.37-.31,4.28-1.66,.56-.83-.79-1.61-1.34-.79-.27,.4-.87,.55-1.32,.65-.71,.17-1.43,.23-2.15,.28-1.42,.11-2.95,.11-4.28,.66-1.16,.47-1.93,1.52-1.63,2.8,.35,1.5,1.89,2.46,3.04,3.31l4.69,3.45c.34,.25,.87,.05,1.06-.28,.24-.39,.06-.82-.28-1.06h0Z"/><path class="cls-6" d="M191.03,195.29c.32-1.07,.13-2.06-.02-3.14-.1-.7-.11-1.67,.41-2.22,.34-.36,.86-.3,1.31-.3,.51,0,1.02,.02,1.52,.05,1.11,.05,2.22,.09,3.32-.06,3.41-.46,6.38-3.01,7.32-6.33,.27-.97-1.23-1.38-1.5-.41-.47,1.66-1.57,3.09-2.99,4.05-1.64,1.1-3.46,1.3-5.39,1.23-1.72-.06-4.05-.57-5.09,1.21-.41,.71-.56,1.6-.51,2.41,.06,1.06,.43,2.04,.12,3.11-.29,.96,1.22,1.37,1.5,.41h0Z"/><use width="65" height="65" transform="translate(204.53 174.26) rotate(25.43) scale(.13)" xlink:href="#Plus"/><use width="65" height="65" transform="translate(161.14 153.58) rotate(25.43) scale(.13)" xlink:href="#Plus"/><use width="65" height="65" transform="translate(84.14 147.04) rotate(25.43) scale(.13)" xlink:href="#Plus"/><use width="65" height="65" transform="translate(130.17 192.22) rotate(25.43) scale(.13)" xlink:href="#Plus"/></g><path class="cls-5" d="M91.71,143.1c-5.19-1.26-9.67-4.6-12.55-9.09s-4.78-11.14-2.07-16,9.12-6.87,14.04-8.09c1.52-.37,3.08-.61,4.65-.48,1.82,.16,3.29,1.03,4.9,1.8,2.47,1.19,5.26,1.47,7.88,.58s4.05-2.7,6.02-4.33c1.13-.94,2.4-1.58,3.91-1.28s2.82,1.21,4.22,1.77c5.57,2.22,12.45-.1,17.23,4.2s5.24,10.62,4.78,16.38c-.28,3.47-.95,6.9-1.23,10.36-.25,2.96,.26,5.68,2.11,8.07,6.58,8.47,20.6,7.58,26.93-.65,.65-.84-.79-1.67-1.43-.84-3.05,3.97-8.13,5.94-13.06,5.79s-10.88-2.84-12.58-7.92c-1.1-3.3,.01-7.34,.45-10.68,.47-3.58,.84-7.21,.39-10.81-.62-4.97-3.07-10.23-7.71-12.63-2.65-1.37-5.65-1.55-8.57-1.71-1.63-.09-3.27-.18-4.87-.54-1.7-.39-3.15-1.23-4.74-1.89-2.46-1.03-4.68-.68-6.75,.98-2.29,1.82-3.98,4.02-7.06,4.5-1.59,.25-3.24,.04-4.71-.6s-2.69-1.48-4.18-1.89c-3.13-.85-6.44-.07-9.44,.91-4.72,1.55-10.23,3.65-12.71,8.29-2.85,5.33-1,12.53,2.06,17.37s7.97,8.62,13.63,10c1.03,.25,1.48-1.34,.44-1.6h0Z"/><g><line class="cls-10" x1="138.13" y1="136.13" x2="150.32" y2="139.07"/><path class="cls-5" d="M154.15,140c-1.97,.23-4.48,.84-6.17,1.71l1.82-2.76-.36-3.29c1.1,1.55,3.06,3.23,4.71,4.34Z"/></g><g><line class="cls-10" x1="82.06" y1="124.7" x2="70.99" y2="118.83"/><path class="cls-5" d="M67.5,116.98c1.96,.26,4.55,.3,6.4-.13l-2.45,2.22-.46,3.28c-.68-1.77-2.17-3.89-3.48-5.37Z"/></g><g><line class="cls-10" x1="94.29" y1="115.3" x2="89.44" y2="103.73"/><path class="cls-5" d="M87.91,100.09c1.35,1.45,3.33,3.12,5.03,3.95l-3.3,.17-2.43,2.24c.6-1.8,.79-4.38,.71-6.36Z"/></g><g><line class="cls-10" x1="120.48" y1="109.73" x2="111.21" y2="101.29"/><path class="cls-5" d="M108.29,98.63c1.84,.74,4.33,1.42,6.23,1.46l-2.93,1.54-1.26,3.06c-.22-1.88-1.13-4.31-2.04-6.07Z"/></g><g><line class="cls-10" x1="136.34" y1="119.49" x2="145.86" y2="111.33"/><path class="cls-5" d="M148.86,108.76c-.96,1.73-1.95,4.13-2.22,6l-1.17-3.09-2.88-1.63c1.9,.02,4.41-.59,6.27-1.28Z"/></g><g><line class="cls-10" x1="93.24" y1="137.66" x2="82.81" y2="144.62"/><path class="cls-5" d="M79.53,146.81c1.16-1.6,2.43-3.86,2.93-5.69l.79,3.21,2.66,1.96c-1.88-.24-4.45,.06-6.38,.51Z"/></g><g><line class="cls-10" x1="160.55" y1="145.95" x2="169.62" y2="154.6"/><path class="cls-5" d="M172.48,157.33c-1.82-.78-4.3-1.53-6.19-1.61l2.96-1.47,1.33-3.03c.17,1.89,1.03,4.33,1.9,6.11Z"/></g></g><line class="cls-4" x1="247.75" y1="2.57" x2="247.75" y2="232.12"/></svg>